<mxfile host="app.diagrams.net" modified="2023-11-18T02:48:47.245Z" agent="Mozilla/5.0 (Windows NT 10.0; Win64; x64; rv:109.0) Gecko/20100101 Firefox/119.0" etag="uoL5K8SHh3u83jJGyCTO" version="22.1.2" type="device">
  <diagram name="Page-1" id="edf60f1a-56cd-e834-aa8a-f176f3a09ee4">
    <mxGraphModel dx="1461" dy="733" grid="1" gridSize="10" guides="1" tooltips="1" connect="1" arrows="1" fold="1" page="1" pageScale="1" pageWidth="1100" pageHeight="850" background="none" math="0" shadow="0">
      <root>
        <mxCell id="0" />
        <mxCell id="1" parent="0" />
        <mxCell id="nbXXnUHkMyMrVEuhtCXT-7" style="edgeStyle=orthogonalEdgeStyle;rounded=0;orthogonalLoop=1;jettySize=auto;html=1;exitX=0.5;exitY=1;exitDx=0;exitDy=0;" parent="1" source="nbXXnUHkMyMrVEuhtCXT-1" target="nbXXnUHkMyMrVEuhtCXT-2" edge="1">
          <mxGeometry relative="1" as="geometry" />
        </mxCell>
        <mxCell id="nbXXnUHkMyMrVEuhtCXT-1" value="&lt;font style=&quot;font-size: 14px;&quot;&gt;开始&lt;/font&gt;" style="rounded=1;whiteSpace=wrap;html=1;" parent="1" vertex="1">
          <mxGeometry x="420" y="50" width="120" height="60" as="geometry" />
        </mxCell>
        <mxCell id="nbXXnUHkMyMrVEuhtCXT-8" style="edgeStyle=orthogonalEdgeStyle;rounded=0;orthogonalLoop=1;jettySize=auto;html=1;exitX=0.5;exitY=1;exitDx=0;exitDy=0;entryX=0.5;entryY=0;entryDx=0;entryDy=0;" parent="1" source="nbXXnUHkMyMrVEuhtCXT-2" target="nbXXnUHkMyMrVEuhtCXT-3" edge="1">
          <mxGeometry relative="1" as="geometry" />
        </mxCell>
        <mxCell id="nbXXnUHkMyMrVEuhtCXT-2" value="&lt;font style=&quot;font-size: 14px;&quot;&gt;接收path数组，结点，总结点数等参量，&lt;/font&gt;&lt;font style=&quot;font-size: 14px;&quot;&gt;定义d数组、final数组、k&lt;/font&gt;" style="rounded=0;whiteSpace=wrap;html=1;" parent="1" vertex="1">
          <mxGeometry x="410" y="140" width="140" height="70" as="geometry" />
        </mxCell>
        <mxCell id="nbXXnUHkMyMrVEuhtCXT-9" style="edgeStyle=orthogonalEdgeStyle;rounded=0;orthogonalLoop=1;jettySize=auto;html=1;exitX=0.5;exitY=1;exitDx=0;exitDy=0;entryX=0.5;entryY=0;entryDx=0;entryDy=0;" parent="1" source="nbXXnUHkMyMrVEuhtCXT-3" target="nbXXnUHkMyMrVEuhtCXT-4" edge="1">
          <mxGeometry relative="1" as="geometry" />
        </mxCell>
        <mxCell id="nbXXnUHkMyMrVEuhtCXT-3" value="&lt;font style=&quot;font-size: 14px;&quot;&gt;初始化final数组&lt;/font&gt;" style="rounded=0;whiteSpace=wrap;html=1;" parent="1" vertex="1">
          <mxGeometry x="420" y="240" width="120" height="60" as="geometry" />
        </mxCell>
        <mxCell id="nbXXnUHkMyMrVEuhtCXT-10" style="edgeStyle=orthogonalEdgeStyle;rounded=0;orthogonalLoop=1;jettySize=auto;html=1;exitX=0.5;exitY=1;exitDx=0;exitDy=0;entryX=0.5;entryY=0;entryDx=0;entryDy=0;" parent="1" source="nbXXnUHkMyMrVEuhtCXT-4" target="nbXXnUHkMyMrVEuhtCXT-5" edge="1">
          <mxGeometry relative="1" as="geometry" />
        </mxCell>
        <mxCell id="nbXXnUHkMyMrVEuhtCXT-11" value="&lt;font style=&quot;font-size: 14px;&quot;&gt;true&lt;/font&gt;" style="edgeLabel;html=1;align=center;verticalAlign=middle;resizable=0;points=[];" parent="nbXXnUHkMyMrVEuhtCXT-10" vertex="1" connectable="0">
          <mxGeometry x="-0.44" y="3" relative="1" as="geometry">
            <mxPoint x="17" y="3" as="offset" />
          </mxGeometry>
        </mxCell>
        <mxCell id="nbXXnUHkMyMrVEuhtCXT-16" style="edgeStyle=orthogonalEdgeStyle;rounded=0;orthogonalLoop=1;jettySize=auto;html=1;exitX=1;exitY=0.5;exitDx=0;exitDy=0;" parent="1" source="nbXXnUHkMyMrVEuhtCXT-4" target="nbXXnUHkMyMrVEuhtCXT-14" edge="1">
          <mxGeometry relative="1" as="geometry">
            <Array as="points">
              <mxPoint x="560" y="360" />
              <mxPoint x="560" y="620" />
              <mxPoint x="480" y="620" />
            </Array>
          </mxGeometry>
        </mxCell>
        <mxCell id="nbXXnUHkMyMrVEuhtCXT-18" value="&lt;font style=&quot;font-size: 14px;&quot;&gt;false&lt;/font&gt;" style="edgeLabel;html=1;align=center;verticalAlign=middle;resizable=0;points=[];" parent="nbXXnUHkMyMrVEuhtCXT-16" vertex="1" connectable="0">
          <mxGeometry x="-0.6667" y="-1" relative="1" as="geometry">
            <mxPoint x="-9" y="-55" as="offset" />
          </mxGeometry>
        </mxCell>
        <mxCell id="nbXXnUHkMyMrVEuhtCXT-4" value="&lt;font style=&quot;font-size: 14px;&quot;&gt;k &amp;lt;= n&lt;/font&gt;" style="rhombus;whiteSpace=wrap;html=1;" parent="1" vertex="1">
          <mxGeometry x="420" y="320" width="120" height="80" as="geometry" />
        </mxCell>
        <mxCell id="nbXXnUHkMyMrVEuhtCXT-12" style="edgeStyle=orthogonalEdgeStyle;rounded=0;orthogonalLoop=1;jettySize=auto;html=1;exitX=0.5;exitY=1;exitDx=0;exitDy=0;entryX=0.5;entryY=0;entryDx=0;entryDy=0;" parent="1" source="nbXXnUHkMyMrVEuhtCXT-5" target="nbXXnUHkMyMrVEuhtCXT-6" edge="1">
          <mxGeometry relative="1" as="geometry" />
        </mxCell>
        <mxCell id="nbXXnUHkMyMrVEuhtCXT-5" value="&lt;font style=&quot;font-size: 14px;&quot;&gt;寻找未被访问的目前距离最小的值&lt;/font&gt;" style="rounded=0;whiteSpace=wrap;html=1;" parent="1" vertex="1">
          <mxGeometry x="420" y="425" width="120" height="60" as="geometry" />
        </mxCell>
        <mxCell id="nbXXnUHkMyMrVEuhtCXT-13" style="edgeStyle=orthogonalEdgeStyle;rounded=0;orthogonalLoop=1;jettySize=auto;html=1;exitX=0.5;exitY=1;exitDx=0;exitDy=0;" parent="1" source="nbXXnUHkMyMrVEuhtCXT-6" edge="1">
          <mxGeometry relative="1" as="geometry">
            <mxPoint x="480" y="310" as="targetPoint" />
            <Array as="points">
              <mxPoint x="480" y="600" />
              <mxPoint x="400" y="600" />
              <mxPoint x="400" y="310" />
            </Array>
          </mxGeometry>
        </mxCell>
        <mxCell id="nbXXnUHkMyMrVEuhtCXT-6" value="&lt;font style=&quot;font-size: 14px;&quot;&gt;将找到的值置为已访问并更新d数组&lt;/font&gt;" style="rounded=0;whiteSpace=wrap;html=1;" parent="1" vertex="1">
          <mxGeometry x="420" y="520" width="120" height="60" as="geometry" />
        </mxCell>
        <mxCell id="nbXXnUHkMyMrVEuhtCXT-17" style="edgeStyle=orthogonalEdgeStyle;rounded=0;orthogonalLoop=1;jettySize=auto;html=1;exitX=0.5;exitY=1;exitDx=0;exitDy=0;entryX=0.5;entryY=0;entryDx=0;entryDy=0;" parent="1" source="nbXXnUHkMyMrVEuhtCXT-14" target="nbXXnUHkMyMrVEuhtCXT-15" edge="1">
          <mxGeometry relative="1" as="geometry" />
        </mxCell>
        <mxCell id="nbXXnUHkMyMrVEuhtCXT-14" value="调用output函数" style="rounded=0;whiteSpace=wrap;html=1;" parent="1" vertex="1">
          <mxGeometry x="420" y="650" width="120" height="60" as="geometry" />
        </mxCell>
        <mxCell id="nbXXnUHkMyMrVEuhtCXT-15" value="结束" style="rounded=1;whiteSpace=wrap;html=1;" parent="1" vertex="1">
          <mxGeometry x="420" y="750" width="120" height="60" as="geometry" />
        </mxCell>
        <mxCell id="nbXXnUHkMyMrVEuhtCXT-19" value="&lt;font style=&quot;font-size: 14px;&quot;&gt;Dijkstra函数&lt;/font&gt;：" style="text;html=1;align=center;verticalAlign=middle;resizable=0;points=[];autosize=1;strokeColor=none;fillColor=none;" parent="1" vertex="1">
          <mxGeometry x="425" y="10" width="110" height="30" as="geometry" />
        </mxCell>
        <mxCell id="nbXXnUHkMyMrVEuhtCXT-26" style="edgeStyle=orthogonalEdgeStyle;rounded=0;orthogonalLoop=1;jettySize=auto;html=1;exitX=0.5;exitY=1;exitDx=0;exitDy=0;entryX=0.5;entryY=0;entryDx=0;entryDy=0;" parent="1" source="nbXXnUHkMyMrVEuhtCXT-20" target="nbXXnUHkMyMrVEuhtCXT-22" edge="1">
          <mxGeometry relative="1" as="geometry" />
        </mxCell>
        <mxCell id="nbXXnUHkMyMrVEuhtCXT-20" value="&lt;font style=&quot;font-size: 14px;&quot;&gt;开始&lt;/font&gt;" style="rounded=1;whiteSpace=wrap;html=1;" parent="1" vertex="1">
          <mxGeometry x="160" y="50" width="120" height="60" as="geometry" />
        </mxCell>
        <mxCell id="nbXXnUHkMyMrVEuhtCXT-21" value="&lt;font style=&quot;font-size: 14px;&quot;&gt;main函数&lt;/font&gt;：" style="text;html=1;align=center;verticalAlign=middle;resizable=0;points=[];autosize=1;strokeColor=none;fillColor=none;" parent="1" vertex="1">
          <mxGeometry x="180" y="10" width="90" height="30" as="geometry" />
        </mxCell>
        <mxCell id="nbXXnUHkMyMrVEuhtCXT-27" style="edgeStyle=orthogonalEdgeStyle;rounded=0;orthogonalLoop=1;jettySize=auto;html=1;exitX=0.5;exitY=1;exitDx=0;exitDy=0;entryX=0.5;entryY=0;entryDx=0;entryDy=0;" parent="1" source="nbXXnUHkMyMrVEuhtCXT-22" target="nbXXnUHkMyMrVEuhtCXT-23" edge="1">
          <mxGeometry relative="1" as="geometry" />
        </mxCell>
        <mxCell id="nbXXnUHkMyMrVEuhtCXT-22" value="&lt;font style=&quot;font-size: 14px;&quot;&gt;定义path数组、n、m、p1、p2、i等变量&lt;/font&gt;" style="rounded=0;whiteSpace=wrap;html=1;" parent="1" vertex="1">
          <mxGeometry x="160" y="150" width="120" height="60" as="geometry" />
        </mxCell>
        <mxCell id="nbXXnUHkMyMrVEuhtCXT-28" style="edgeStyle=orthogonalEdgeStyle;rounded=0;orthogonalLoop=1;jettySize=auto;html=1;exitX=0.5;exitY=1;exitDx=0;exitDy=0;entryX=0.5;entryY=0;entryDx=0;entryDy=0;" parent="1" source="nbXXnUHkMyMrVEuhtCXT-23" target="nbXXnUHkMyMrVEuhtCXT-24" edge="1">
          <mxGeometry relative="1" as="geometry" />
        </mxCell>
        <mxCell id="nbXXnUHkMyMrVEuhtCXT-23" value="&lt;div&gt;&lt;font style=&quot;font-size: 14px;&quot;&gt;输入数据&lt;/font&gt;&lt;/div&gt;&lt;div&gt;&lt;font style=&quot;font-size: 14px;&quot;&gt;构建邻接矩阵&lt;/font&gt;&lt;/div&gt;" style="shape=parallelogram;perimeter=parallelogramPerimeter;whiteSpace=wrap;html=1;fixedSize=1;" parent="1" vertex="1">
          <mxGeometry x="160" y="240" width="120" height="60" as="geometry" />
        </mxCell>
        <mxCell id="nbXXnUHkMyMrVEuhtCXT-29" style="edgeStyle=orthogonalEdgeStyle;rounded=0;orthogonalLoop=1;jettySize=auto;html=1;exitX=0.5;exitY=1;exitDx=0;exitDy=0;entryX=0.5;entryY=0;entryDx=0;entryDy=0;" parent="1" source="nbXXnUHkMyMrVEuhtCXT-24" target="nbXXnUHkMyMrVEuhtCXT-25" edge="1">
          <mxGeometry relative="1" as="geometry" />
        </mxCell>
        <mxCell id="nbXXnUHkMyMrVEuhtCXT-30" value="&lt;div&gt;&lt;font style=&quot;font-size: 14px;&quot;&gt;true&lt;/font&gt;&lt;/div&gt;" style="edgeLabel;html=1;align=center;verticalAlign=middle;resizable=0;points=[];" parent="nbXXnUHkMyMrVEuhtCXT-29" vertex="1" connectable="0">
          <mxGeometry x="-0.4" y="2" relative="1" as="geometry">
            <mxPoint x="18" as="offset" />
          </mxGeometry>
        </mxCell>
        <mxCell id="nbXXnUHkMyMrVEuhtCXT-33" style="edgeStyle=orthogonalEdgeStyle;rounded=0;orthogonalLoop=1;jettySize=auto;html=1;exitX=1;exitY=0.5;exitDx=0;exitDy=0;" parent="1" source="nbXXnUHkMyMrVEuhtCXT-24" target="nbXXnUHkMyMrVEuhtCXT-32" edge="1">
          <mxGeometry relative="1" as="geometry">
            <Array as="points">
              <mxPoint x="300" y="370" />
              <mxPoint x="300" y="530" />
              <mxPoint x="225" y="530" />
            </Array>
          </mxGeometry>
        </mxCell>
        <mxCell id="nbXXnUHkMyMrVEuhtCXT-34" value="&lt;font style=&quot;font-size: 14px;&quot;&gt;false&lt;/font&gt;" style="edgeLabel;html=1;align=center;verticalAlign=middle;resizable=0;points=[];" parent="nbXXnUHkMyMrVEuhtCXT-33" vertex="1" connectable="0">
          <mxGeometry x="-0.8644" relative="1" as="geometry">
            <mxPoint x="-10" y="-10" as="offset" />
          </mxGeometry>
        </mxCell>
        <mxCell id="nbXXnUHkMyMrVEuhtCXT-24" value="&lt;font style=&quot;font-size: 14px;&quot;&gt;i &amp;lt;= n(结点数)&lt;br&gt;&lt;/font&gt;" style="rhombus;whiteSpace=wrap;html=1;" parent="1" vertex="1">
          <mxGeometry x="160" y="330" width="120" height="80" as="geometry" />
        </mxCell>
        <mxCell id="nbXXnUHkMyMrVEuhtCXT-31" style="edgeStyle=orthogonalEdgeStyle;rounded=0;orthogonalLoop=1;jettySize=auto;html=1;exitX=0.5;exitY=1;exitDx=0;exitDy=0;" parent="1" source="nbXXnUHkMyMrVEuhtCXT-25" edge="1">
          <mxGeometry relative="1" as="geometry">
            <mxPoint x="220" y="310" as="targetPoint" />
            <Array as="points">
              <mxPoint x="220" y="510" />
              <mxPoint x="140" y="510" />
              <mxPoint x="140" y="310" />
              <mxPoint x="160" y="310" />
            </Array>
          </mxGeometry>
        </mxCell>
        <mxCell id="nbXXnUHkMyMrVEuhtCXT-25" value="&lt;font style=&quot;font-size: 14px;&quot;&gt;调用Dijkstra函数&lt;/font&gt;" style="rounded=0;whiteSpace=wrap;html=1;" parent="1" vertex="1">
          <mxGeometry x="160" y="430" width="120" height="60" as="geometry" />
        </mxCell>
        <mxCell id="nbXXnUHkMyMrVEuhtCXT-32" value="&lt;font style=&quot;font-size: 14px;&quot;&gt;结束&lt;/font&gt;" style="rounded=1;whiteSpace=wrap;html=1;" parent="1" vertex="1">
          <mxGeometry x="165" y="560" width="120" height="60" as="geometry" />
        </mxCell>
        <mxCell id="nbXXnUHkMyMrVEuhtCXT-35" value="&lt;font style=&quot;font-size: 14px;&quot;&gt;output函数&lt;/font&gt;：" style="text;html=1;align=center;verticalAlign=middle;resizable=0;points=[];autosize=1;strokeColor=none;fillColor=none;" parent="1" vertex="1">
          <mxGeometry x="685" y="10" width="100" height="30" as="geometry" />
        </mxCell>
        <mxCell id="nbXXnUHkMyMrVEuhtCXT-40" style="edgeStyle=orthogonalEdgeStyle;rounded=0;orthogonalLoop=1;jettySize=auto;html=1;exitX=0.5;exitY=1;exitDx=0;exitDy=0;entryX=0.5;entryY=0;entryDx=0;entryDy=0;" parent="1" source="nbXXnUHkMyMrVEuhtCXT-36" target="nbXXnUHkMyMrVEuhtCXT-37" edge="1">
          <mxGeometry relative="1" as="geometry" />
        </mxCell>
        <mxCell id="nbXXnUHkMyMrVEuhtCXT-36" value="&lt;font style=&quot;font-size: 14px;&quot;&gt;开始&lt;/font&gt;" style="rounded=1;whiteSpace=wrap;html=1;" parent="1" vertex="1">
          <mxGeometry x="665" y="50" width="120" height="60" as="geometry" />
        </mxCell>
        <mxCell id="nbXXnUHkMyMrVEuhtCXT-41" style="edgeStyle=orthogonalEdgeStyle;rounded=0;orthogonalLoop=1;jettySize=auto;html=1;exitX=0.5;exitY=1;exitDx=0;exitDy=0;entryX=0.5;entryY=0;entryDx=0;entryDy=0;" parent="1" source="nbXXnUHkMyMrVEuhtCXT-37" target="nbXXnUHkMyMrVEuhtCXT-38" edge="1">
          <mxGeometry relative="1" as="geometry" />
        </mxCell>
        <mxCell id="nbXXnUHkMyMrVEuhtCXT-37" value="&lt;font style=&quot;font-size: 14px;&quot;&gt;接收d数组、结点编号、总结点数&lt;/font&gt;" style="rounded=0;whiteSpace=wrap;html=1;" parent="1" vertex="1">
          <mxGeometry x="665" y="145" width="120" height="60" as="geometry" />
        </mxCell>
        <mxCell id="nbXXnUHkMyMrVEuhtCXT-42" style="edgeStyle=orthogonalEdgeStyle;rounded=0;orthogonalLoop=1;jettySize=auto;html=1;exitX=0.5;exitY=1;exitDx=0;exitDy=0;entryX=0.5;entryY=0;entryDx=0;entryDy=0;" parent="1" source="nbXXnUHkMyMrVEuhtCXT-38" target="nbXXnUHkMyMrVEuhtCXT-39" edge="1">
          <mxGeometry relative="1" as="geometry" />
        </mxCell>
        <mxCell id="nbXXnUHkMyMrVEuhtCXT-38" value="&lt;font style=&quot;font-size: 14px;&quot;&gt;遍历d数组计算距离不超过6的结点数&lt;/font&gt;" style="rounded=0;whiteSpace=wrap;html=1;" parent="1" vertex="1">
          <mxGeometry x="665" y="240" width="120" height="60" as="geometry" />
        </mxCell>
        <mxCell id="nbXXnUHkMyMrVEuhtCXT-44" style="edgeStyle=orthogonalEdgeStyle;rounded=0;orthogonalLoop=1;jettySize=auto;html=1;exitX=0.5;exitY=1;exitDx=0;exitDy=0;entryX=0.5;entryY=0;entryDx=0;entryDy=0;" parent="1" source="nbXXnUHkMyMrVEuhtCXT-39" target="nbXXnUHkMyMrVEuhtCXT-43" edge="1">
          <mxGeometry relative="1" as="geometry" />
        </mxCell>
        <mxCell id="nbXXnUHkMyMrVEuhtCXT-39" value="&lt;div&gt;&lt;font style=&quot;font-size: 14px;&quot;&gt;输出与该结点&lt;/font&gt;&lt;/div&gt;&lt;div&gt;&lt;font style=&quot;font-size: 14px;&quot;&gt;距离不超过6的结点数&lt;/font&gt;&lt;/div&gt;&lt;div&gt;&lt;font style=&quot;font-size: 14px;&quot;&gt;占结点总数&lt;/font&gt;&lt;/div&gt;&lt;div&gt;&lt;font style=&quot;font-size: 14px;&quot;&gt;的百分比&lt;/font&gt;&lt;/div&gt;" style="shape=parallelogram;perimeter=parallelogramPerimeter;whiteSpace=wrap;html=1;fixedSize=1;" parent="1" vertex="1">
          <mxGeometry x="635" y="340" width="180" height="90" as="geometry" />
        </mxCell>
        <mxCell id="nbXXnUHkMyMrVEuhtCXT-43" value="&lt;font style=&quot;font-size: 14px;&quot;&gt;结束&lt;/font&gt;" style="rounded=1;whiteSpace=wrap;html=1;" parent="1" vertex="1">
          <mxGeometry x="665" y="485" width="120" height="60" as="geometry" />
        </mxCell>
      </root>
    </mxGraphModel>
  </diagram>
</mxfile>
